<?xml version="1.0" standalone="no"?>
<!DOCTYPE svg PUBLIC "-//W3C//DTD SVG 20010904//EN"
 "http://www.w3.org/TR/2001/REC-SVG-20010904/DTD/svg10.dtd">
<svg version="1.0" xmlns="http://www.w3.org/2000/svg"
 width="256.000000pt" height="256.000000pt" viewBox="0 0 256.000000 256.000000"
 preserveAspectRatio="xMidYMid meet">

<g transform="translate(0.000000,256.000000) scale(0.100000,-0.100000)"
fill="#04B3F3" stroke="none">
<path d="M1205 2454 c-11 -2 -45 -9 -75 -15 -126 -26 -275 -118 -360 -222 -59
-72 -113 -177 -136 -262 -20 -77 -20 -238 0 -330 58 -271 243 -632 540 -1052
56 -79 103 -143 106 -143 3 0 50 64 106 143 371 526 555 929 555 1217 0 122
-16 194 -66 295 -84 171 -243 301 -428 351 -55 15 -208 26 -242 18z m226 -120
c97 -29 171 -74 245 -148 141 -141 193 -328 149 -533 -32 -152 -118 -359 -240
-578 -74 -133 -292 -465 -305 -465 -14 0 -232 333 -309 471 -304 548 -329 860
-86 1105 72 73 138 114 235 145 73 24 236 25 311 3z"/>
<path d="M1200 2035 c-182 -57 -233 -300 -90 -428 56 -52 97 -67 172 -67 76 0
129 23 180 76 50 53 71 106 71 180 -1 110 -74 208 -177 239 -60 18 -97 18
-156 0z m160 -114 c98 -68 92 -212 -10 -263 -101 -51 -220 19 -220 129 0 124
133 201 230 134z"/>
<path d="M227 513 l-145 -408 599 -3 c329 -1 869 -1 1198 0 l599 3 -145 408
-146 407 -198 0 -197 0 -26 -46 c-14 -26 -26 -48 -26 -50 0 -2 84 -4 188 -4
l187 0 107 -303 c60 -166 108 -306 108 -310 0 -4 -472 -7 -1050 -7 -577 0
-1050 3 -1050 7 0 4 48 144 108 310 l107 303 188 0 c103 0 187 2 187 4 0 2
-12 24 -26 50 l-26 46 -197 0 -198 0 -146 -407z"/>
</g>
</svg>
