<svg version="1.0" xmlns="http://www.w3.org/2000/svg"
 width="256.000000pt" height="256.000000pt" viewBox="0 0 256.000000 256.000000"
 preserveAspectRatio="xMidYMid meet">

<g transform="translate(0.000000,256.000000) scale(0.050000,-0.050000)"
fill="#04B3F3" stroke="none">
<path d="M2575 4909 c-1224 -61 -2223 -1079 -2262 -2304 -21 -645 242 -1282
718 -1740 292 -281 656 -485 1046 -585 267 -69 611 -90 891 -55 652 84 1231
436 1626 989 45 63 56 86 56 118 0 57 -42 98 -101 98 -49 0 -56 -7 -176 -170
-43 -58 -130 -157 -193 -220 -576 -576 -1418 -776 -2190 -520 -325 108 -581
263 -824 499 -189 185 -309 349 -429 591 -199 398 -266 848 -192 1276 109 625
486 1175 1036 1510 325 198 742 314 1131 314 674 0 1302 -362 1640 -946 163
-283 257 -636 245 -919 -23 -528 -328 -1063 -772 -1351 -145 -94 -333 -164
-443 -164 -73 0 -150 48 -183 113 -19 36 -21 53 -16 127 12 186 53 304 442
1278 240 600 365 925 365 948 0 79 -108 127 -163 72 -13 -13 -52 -95 -86 -183
-89 -222 -77 -209 -116 -136 -161 300 -465 453 -874 438 -148 -5 -203 -17
-348 -73 -184 -72 -377 -201 -550 -368 -285 -274 -469 -586 -562 -956 -65
-258 -78 -552 -32 -730 87 -334 338 -592 678 -697 82 -25 100 -27 268 -27 167
0 186 2 270 28 171 52 326 146 443 270 29 31 55 56 56 56 2 0 6 -17 8 -38 15
-107 115 -233 227 -285 145 -68 358 -43 581 68 426 211 785 657 939 1165 47
154 81 364 81 497 0 170 -56 453 -127 643 -208 559 -641 1003 -1193 1225 -281
114 -579 160 -915 144z m335 -1130 c341 -42 530 -207 614 -535 l16 -60 -238
-595 c-215 -536 -246 -606 -313 -714 -199 -319 -347 -453 -569 -514 -274 -76
-562 -1 -761 198 -174 174 -240 374 -220 662 31 433 196 806 490 1112 221 230
481 388 726 442 75 17 147 18 255 4z"/>
</g>
</svg>
