<svg width="20" height="20" viewBox="0 0 20 20" fill="none" xmlns="http://www.w3.org/2000/svg">
<path fill-rule="evenodd" clip-rule="evenodd" d="M0.000361259 10C0.000361259 4.477 4.47736 0 10.0004 0C15.5234 0 20.0004 4.477 20.0004 10C20.0004 15.523 15.5234 20 10.0004 20C8.27038 20.0026 6.56954 19.5546 5.06536 18.7L1.31636 19.949C1.14016 20.0078 0.951086 20.0163 0.770316 19.9736C0.589545 19.931 0.424228 19.8388 0.292893 19.7075C0.161558 19.5761 0.0693955 19.4108 0.0267349 19.23C-0.0159258 19.0493 -0.00739823 18.8602 0.0513614 18.684L1.30136 14.935C0.446401 13.4309 -0.00198902 11.7301 0.000361259 10ZM6.00036 5C5.73515 5 5.48079 5.10536 5.29325 5.29289C5.10572 5.48043 5.00036 5.73478 5.00036 6C5.00036 6.26522 5.10572 6.51957 5.29325 6.70711C5.48079 6.89464 5.73515 7 6.00036 7H14.0004C14.2656 7 14.5199 6.89464 14.7075 6.70711C14.895 6.51957 15.0004 6.26522 15.0004 6C15.0004 5.73478 14.895 5.48043 14.7075 5.29289C14.5199 5.10536 14.2656 5 14.0004 5H6.00036ZM6.00036 9C5.73515 9 5.48079 9.10536 5.29325 9.29289C5.10572 9.48043 5.00036 9.73478 5.00036 10C5.00036 10.2652 5.10572 10.5196 5.29325 10.7071C5.48079 10.8946 5.73515 11 6.00036 11H14.0004C14.2656 11 14.5199 10.8946 14.7075 10.7071C14.895 10.5196 15.0004 10.2652 15.0004 10C15.0004 9.73478 14.895 9.48043 14.7075 9.29289C14.5199 9.10536 14.2656 9 14.0004 9H6.00036ZM6.00036 13C5.73515 13 5.48079 13.1054 5.29325 13.2929C5.10572 13.4804 5.00036 13.7348 5.00036 14C5.00036 14.2652 5.10572 14.5196 5.29325 14.7071C5.48079 14.8946 5.73515 15 6.00036 15H9.00036C9.26558 15 9.51993 14.8946 9.70747 14.7071C9.895 14.5196 10.0004 14.2652 10.0004 14C10.0004 13.7348 9.895 13.4804 9.70747 13.2929C9.51993 13.1054 9.26558 13 9.00036 13H6.00036Z" fill="#276EF1"/>
</svg>
