<svg width="197" height="42" viewBox="0 0 197 42" fill="none" xmlns="http://www.w3.org/2000/svg">
<g clip-path="url(#clip0_301_2344)">
<path d="M69.4928 24.1907L68.3194 27.5116H68.2216C68.026 26.7628 67.6675 25.6233 67.0808 24.2558L60.7899 8.46512H54.6294V33.6326H58.7038V18.1023C58.7038 17.1256 58.7038 16.0186 58.6712 14.6512C58.6386 13.9674 58.5734 13.4465 58.5408 13.0558H58.6386C58.8342 14.0326 59.0623 14.7488 59.2253 15.2047L66.7874 33.5674H69.6558L77.1527 15.0419C77.3157 14.6186 77.4786 13.7721 77.6416 13.0558H77.7394C77.6416 14.9116 77.5764 16.5721 77.5438 17.5814V33.5349H81.879V8.4H75.9467L69.4928 24.1907ZM85.986 15.4977H90.2234V33.5349H85.986V15.4977ZM88.1373 7.87907C87.4202 7.87907 86.8335 8.13954 86.3445 8.59535C85.8556 9.05117 85.5948 9.63721 85.5948 10.3535C85.5948 11.0372 85.8556 11.6233 86.3445 12.0791C86.8335 12.5349 87.4202 12.7628 88.1373 12.7628C88.8544 12.7628 89.4737 12.5023 89.93 12.0791C90.4189 11.6233 90.6797 11.0372 90.6797 10.3535C90.6797 9.66977 90.4189 9.08372 89.93 8.59535C89.5063 8.13954 88.887 7.87907 88.1373 7.87907ZM105.25 15.3349C104.467 15.1721 103.653 15.0744 102.87 15.0744C100.947 15.0744 99.187 15.4977 97.7202 16.3442C96.2535 17.1907 95.08 18.3628 94.3303 19.8279C93.5481 21.3256 93.1569 23.0512 93.1569 25.0372C93.1569 26.7628 93.5481 28.293 94.2977 29.693C95.0474 31.0605 96.0905 32.1674 97.4921 32.9163C98.8285 33.6651 100.393 34.0558 102.153 34.0558C104.174 34.0558 105.902 33.6326 107.271 32.8512L107.303 32.8186V28.9116L107.14 29.0419C106.521 29.4977 105.804 29.8884 105.087 30.1163C104.337 30.3767 103.653 30.507 103.066 30.507C101.371 30.507 100.035 30.0186 99.0892 28.9442C98.1114 27.9023 97.6225 26.4698 97.6225 24.6791C97.6225 22.8233 98.1114 21.3581 99.1218 20.2837C100.132 19.2093 101.469 18.6558 103.098 18.6558C104.467 18.6558 105.869 19.1116 107.14 20.0233L107.303 20.1535V16.0186L107.271 15.986C106.717 15.7581 106.097 15.4977 105.25 15.3349ZM119.233 15.2047C118.19 15.2047 117.212 15.5302 116.365 16.214C115.648 16.8 115.159 17.6465 114.735 18.6558H114.702V15.4977H110.465V33.5349H114.702V24.3209C114.702 22.7581 115.028 21.4558 115.745 20.5116C116.462 19.5349 117.375 19.0465 118.483 19.0465C118.875 19.0465 119.266 19.1442 119.755 19.2093C120.211 19.3395 120.537 19.4698 120.765 19.6326L120.928 19.7628V15.5302L120.83 15.4977C120.537 15.3023 119.95 15.2047 119.233 15.2047ZM130.772 15.107C127.806 15.107 125.426 15.9861 123.764 17.7116C122.069 19.4372 121.254 21.814 121.254 24.8093C121.254 27.6093 122.101 29.8884 123.731 31.5488C125.361 33.1767 127.577 34.0233 130.348 34.0233C133.249 34.0233 135.563 33.1442 137.226 31.3861C138.921 29.6279 139.735 27.2837 139.735 24.3861C139.735 21.5209 138.953 19.2419 137.356 17.5814C135.824 15.9209 133.575 15.107 130.772 15.107ZM134.162 28.9767C133.379 29.9861 132.141 30.4744 130.609 30.4744C129.077 30.4744 127.838 29.9861 126.958 28.9116C126.078 27.9023 125.654 26.4372 125.654 24.5814C125.654 22.6605 126.111 21.1954 126.958 20.1535C127.838 19.1116 129.044 18.5907 130.576 18.5907C132.076 18.5907 133.249 19.0791 134.096 20.0884C134.944 21.0977 135.4 22.5628 135.4 24.4837C135.335 26.4372 134.977 27.9674 134.162 28.9767ZM149.188 22.986C147.852 22.4326 147.004 22.0093 146.613 21.6512C146.287 21.3256 146.124 20.8698 146.124 20.2837C146.124 19.7954 146.32 19.307 146.809 18.9814C147.298 18.6558 147.852 18.493 148.667 18.493C149.384 18.493 150.133 18.6233 150.85 18.8186C151.568 19.014 152.219 19.307 152.741 19.6977L152.904 19.8279V15.8558L152.806 15.8233C152.317 15.6279 151.665 15.4326 150.883 15.2698C150.101 15.1395 149.384 15.0744 148.797 15.0744C146.776 15.0744 145.114 15.5628 143.81 16.6372C142.506 17.6465 141.887 19.014 141.887 20.6093C141.887 21.4558 142.017 22.2047 142.31 22.8233C142.604 23.4419 143.028 24.0279 143.614 24.5163C144.201 24.9721 145.048 25.493 146.222 25.9814C147.2 26.4047 147.949 26.7302 148.406 26.9907C148.862 27.2512 149.155 27.5442 149.384 27.7721C149.547 28.0326 149.644 28.3581 149.644 28.7814C149.644 29.9861 148.732 30.5721 146.874 30.5721C146.157 30.5721 145.407 30.4419 144.527 30.1488C143.647 29.8558 142.832 29.4326 142.148 28.9442L141.985 28.814V32.9488L142.082 32.9814C142.702 33.2744 143.451 33.4698 144.364 33.6977C145.277 33.8605 146.092 33.9907 146.809 33.9907C148.993 33.9907 150.785 33.5023 152.056 32.4279C153.36 31.3861 154.045 30.0512 154.045 28.3256C154.045 27.1209 153.719 26.0465 153.002 25.2326C152.056 24.4512 150.883 23.6372 149.188 22.986ZM165.225 15.107C162.259 15.107 159.879 15.9861 158.217 17.7116C156.555 19.4372 155.707 21.814 155.707 24.8093C155.707 27.6093 156.555 29.8884 158.184 31.5488C159.814 33.1767 162.031 34.0233 164.801 34.0233C167.702 34.0233 170.016 33.1442 171.679 31.3861C173.374 29.6279 174.189 27.2837 174.189 24.3861C174.189 21.5209 173.406 19.2419 171.809 17.5814C170.277 15.9209 168.028 15.107 165.225 15.107ZM168.582 28.9767C167.8 29.9861 166.561 30.4744 165.029 30.4744C163.465 30.4744 162.259 29.9861 161.379 28.9116C160.499 27.9023 160.075 26.4372 160.075 24.5814C160.075 22.6605 160.531 21.1954 161.379 20.1535C162.259 19.1116 163.465 18.5907 164.997 18.5907C166.464 18.5907 167.67 19.0791 168.517 20.0884C169.365 21.0977 169.821 22.5628 169.821 24.4837C169.821 26.4372 169.397 27.9674 168.582 28.9767ZM196.842 18.9814V15.4977H192.572V10.1581L192.442 10.1907L188.4 11.3954L188.302 11.4279V15.4977H181.914V13.2186C181.914 12.1767 182.174 11.3628 182.631 10.8419C183.087 10.3209 183.772 10.0605 184.619 10.0605C185.206 10.0605 185.825 10.1907 186.51 10.4837L186.673 10.5814V6.90233L186.575 6.86977C185.988 6.67442 185.206 6.54419 184.195 6.54419C182.924 6.54419 181.816 6.83721 180.805 7.32558C179.795 7.87907 179.045 8.62791 178.491 9.63721C177.937 10.614 177.644 11.7209 177.644 12.9907V15.4977H174.678V18.9488H177.644V33.5349H181.914V18.9814H188.302V28.2605C188.302 32.0698 190.095 33.9907 193.681 33.9907C194.267 33.9907 194.887 33.893 195.473 33.7954C196.093 33.6651 196.549 33.5023 196.81 33.3721L196.842 33.3395V29.8558L196.679 29.986C196.419 30.1488 196.19 30.2791 195.799 30.3767C195.473 30.4744 195.18 30.507 194.952 30.507C194.104 30.507 193.518 30.3116 193.094 29.8233C192.703 29.3674 192.507 28.6186 192.507 27.5116V18.9814H196.842Z" fill="#C0C0CA"/>
<path d="M0 0H19.9809V19.9581H0V0Z" fill="#C0C0CA"/>
<path d="M22.0669 0H42.0478V19.9581H22.0669V0Z" fill="#C0C0CA"/>
<path d="M0 22.0417H19.9809V41.9999H0V22.0417Z" fill="#C0C0CA"/>
<path d="M22.0669 22.0417H42.0478V41.9999H22.0669V22.0417Z" fill="#C0C0CA"/>
</g>
<defs>
<clipPath id="clip0_301_2344">
<rect width="196.875" height="42" fill="white"/>
</clipPath>
</defs>
</svg>
