<svg width="100" height="99" viewBox="0 0 100 99" fill="none" xmlns="http://www.w3.org/2000/svg">
<circle cx="50.3359" cy="49.5" r="49.5" fill="#002D40"/>
<path d="M60.1858 37.3098C60.1858 43.0037 55.5953 47.6195 49.9327 47.6195C44.2701 47.6195 39.6797 43.0037 39.6797 37.3098C39.6797 31.6158 44.2701 27 49.9327 27C55.5953 27 60.1858 31.6158 60.1858 37.3098Z" fill="#00CBA9"/>
<g filter="url(#filter0_biiii_226_5066)">
<path d="M78 44.845C74.323 41.1476 69.9577 38.2147 65.1535 36.2138C60.3492 34.2128 55.2001 33.1829 50 33.1829C44.7999 33.1829 39.6508 34.2128 34.8465 36.2138C30.0423 38.2147 25.677 41.1476 22 44.845L50 72.9999L78 44.845Z" fill="url(#paint0_linear_226_5066)"/>
</g>
<path d="M44.9844 37.3099C44.9844 40.0587 47.2005 42.287 49.9341 42.287C52.6678 42.287 54.8839 40.0587 54.8839 37.3099C54.8839 34.5611 52.6678 32.3328 49.9341 32.3328C47.2005 32.3328 44.9844 34.5611 44.9844 37.3099Z" fill="url(#paint1_linear_226_5066)"/>
<defs>
<filter id="filter0_biiii_226_5066" x="1" y="12.1829" width="98" height="81.8169" filterUnits="userSpaceOnUse" color-interpolation-filters="sRGB">
<feFlood flood-opacity="0" result="BackgroundImageFix"/>
<feGaussianBlur in="BackgroundImageFix" stdDeviation="10.5"/>
<feComposite in2="SourceAlpha" operator="in" result="effect1_backgroundBlur_226_5066"/>
<feBlend mode="normal" in="SourceGraphic" in2="effect1_backgroundBlur_226_5066" result="shape"/>
<feColorMatrix in="SourceAlpha" type="matrix" values="0 0 0 0 0 0 0 0 0 0 0 0 0 0 0 0 0 0 127 0" result="hardAlpha"/>
<feOffset dx="10" dy="10"/>
<feGaussianBlur stdDeviation="11.5"/>
<feComposite in2="hardAlpha" operator="arithmetic" k2="-1" k3="1"/>
<feColorMatrix type="matrix" values="0 0 0 0 0 0 0 0 0 0.796078 0 0 0 0 0.662745 0 0 0 0.18 0"/>
<feBlend mode="normal" in2="shape" result="effect2_innerShadow_226_5066"/>
<feColorMatrix in="SourceAlpha" type="matrix" values="0 0 0 0 0 0 0 0 0 0 0 0 0 0 0 0 0 0 127 0" result="hardAlpha"/>
<feOffset dy="2"/>
<feGaussianBlur stdDeviation="3"/>
<feComposite in2="hardAlpha" operator="arithmetic" k2="-1" k3="1"/>
<feColorMatrix type="matrix" values="0 0 0 0 1 0 0 0 0 1 0 0 0 0 1 0 0 0 0.05 0"/>
<feBlend mode="normal" in2="effect2_innerShadow_226_5066" result="effect3_innerShadow_226_5066"/>
<feColorMatrix in="SourceAlpha" type="matrix" values="0 0 0 0 0 0 0 0 0 0 0 0 0 0 0 0 0 0 127 0" result="hardAlpha"/>
<feOffset dy="1"/>
<feComposite in2="hardAlpha" operator="arithmetic" k2="-1" k3="1"/>
<feColorMatrix type="matrix" values="0 0 0 0 1 0 0 0 0 1 0 0 0 0 1 0 0 0 0.05 0"/>
<feBlend mode="normal" in2="effect3_innerShadow_226_5066" result="effect4_innerShadow_226_5066"/>
<feColorMatrix in="SourceAlpha" type="matrix" values="0 0 0 0 0 0 0 0 0 0 0 0 0 0 0 0 0 0 127 0" result="hardAlpha"/>
<feOffset dy="-10"/>
<feGaussianBlur stdDeviation="5"/>
<feComposite in2="hardAlpha" operator="arithmetic" k2="-1" k3="1"/>
<feColorMatrix type="matrix" values="0 0 0 0 0 0 0 0 0 0.796078 0 0 0 0 0.662745 0 0 0 0.4 0"/>
<feBlend mode="overlay" in2="effect4_innerShadow_226_5066" result="effect5_innerShadow_226_5066"/>
</filter>
<linearGradient id="paint0_linear_226_5066" x1="50" y1="111.999" x2="30.1234" y2="37.9001" gradientUnits="userSpaceOnUse">
<stop stop-color="#00CBA9" stop-opacity="0.01"/>
<stop offset="1" stop-color="#00CBA9" stop-opacity="0.12"/>
</linearGradient>
<linearGradient id="paint1_linear_226_5066" x1="49.9341" y1="28.2444" x2="49.9341" y2="42.287" gradientUnits="userSpaceOnUse">
<stop stop-color="white"/>
<stop offset="1" stop-color="white" stop-opacity="0"/>
</linearGradient>
</defs>
</svg>
