<svg width="20" height="20" viewBox="0 0 20 20" fill="none" xmlns="http://www.w3.org/2000/svg">
<path d="M18.5 7.03503C17.8839 5.27196 16.7349 3.74409 15.2119 2.66303C13.689 1.58197 11.8676 1.00122 10 1.00122C8.13239 1.00122 6.31099 1.58197 4.78807 2.66303C3.26515 3.74409 2.11608 5.27196 1.50001 7.03503M18.5 7.03503C18.824 7.96303 19 8.96103 19 10C19.0011 11.0098 18.8321 12.0125 18.5 12.966M18.5 7.03503H1.50001M1.50001 7.03503C1.16801 7.98827 0.998978 8.99063 1.00001 10C0.998923 11.0098 1.16795 12.0125 1.50001 12.966M1.50001 12.966C2.11608 14.7291 3.26515 16.257 4.78807 17.338C6.31099 18.4191 8.13239 18.9998 10 18.9998C11.8676 18.9998 13.689 18.4191 15.2119 17.338C16.7349 16.257 17.8839 14.7291 18.5 12.966M1.50001 12.966H18.5" stroke="#276EF1" stroke-width="2" stroke-linecap="round" stroke-linejoin="round"/>
<path d="M10.0009 19C14.9709 14.03 14.9709 5.97 10.0009 1C5.03094 5.97 5.03094 14.03 10.0009 19Z" stroke="#276EF1" stroke-width="2" stroke-linecap="round" stroke-linejoin="round"/>
</svg>
