<svg width="31" height="23" viewBox="0 0 31 23" fill="none" xmlns="http://www.w3.org/2000/svg">
<path d="M17.9331 23V16.0839C17.9331 11.7413 19.0149 8.2028 21.1784 5.46853C23.3989 2.68065 26.6727 0.857804 30.9998 0V5.22727C29.064 5.65618 27.5268 6.46037 26.388 7.63986C25.2493 8.76574 24.5092 10.1329 24.1676 11.7413H29.2918V23H17.9331ZM0.681641 23V16.0839C0.681641 11.7413 1.76342 8.2028 3.92697 5.46853C6.14745 2.68065 9.39278 0.857804 13.6629 0V5.22727C11.7271 5.65618 10.1899 6.46037 9.05117 7.63986C7.91246 8.76574 7.17229 10.1329 6.83068 11.7413H11.9549V23H0.681641Z" fill="#8A8880"/>
</svg>
