<svg version="1.0" xmlns="http://www.w3.org/2000/svg"
 width="256.000000pt" height="256.000000pt" viewBox="0 0 256.000000 256.000000"
 preserveAspectRatio="xMidYMid meet">

<g transform="translate(0.000000,256.000000) scale(0.100000,-0.100000)"
fill="#FFFFFF" stroke="none">
<path d="M340 2139 c-44 -18 -90 -59 -113 -102 l-22 -42 0 -605 c0 -445 3
-614 12 -637 l12 -33 -70 0 c-57 0 -73 -4 -90 -21 -18 -18 -20 -29 -15 -65 11
-82 66 -158 146 -200 33 -18 80 -19 1080 -19 1000 0 1047 1 1080 19 80 42 135
118 146 200 5 36 3 47 -15 65 -17 17 -33 21 -90 21 l-70 0 12 33 c9 23 12 192
12 637 l0 605 -25 45 c-14 24 -45 58 -68 75 l-44 30 -926 2 c-596 1 -936 -2
-952 -8z m1855 -104 c18 -9 37 -27 44 -41 8 -18 11 -196 11 -620 l0 -596 -29
-29 -29 -29 -912 0 -912 0 -29 29 -29 29 0 596 c0 422 3 602 11 620 27 57 -5
56 957 56 778 0 888 -2 917 -15z m185 -1431 c0 -3 -10 -19 -21 -36 -43 -60 3
-58 -1080 -58 -894 0 -994 2 -1025 16 -30 14 -74 61 -74 78 0 3 495 6 1100 6
605 0 1100 -3 1100 -6z"/>
<path d="M1130 1380 l0 -510 150 0 150 0 0 510 0 510 -150 0 -150 0 0 -510z
m200 0 l0 -410 -50 0 -50 0 0 410 0 410 50 0 50 0 0 -410z"/>
<path d="M1540 1280 l0 -410 150 0 150 0 0 410 0 410 -150 0 -150 0 0 -410z
m200 0 l0 -310 -50 0 -50 0 0 310 0 310 50 0 50 0 0 -310z"/>
<path d="M720 1150 l0 -280 150 0 150 0 0 280 0 280 -150 0 -150 0 0 -280z
m200 0 l0 -180 -50 0 -50 0 0 180 0 180 50 0 50 0 0 -180z"/>
</g>
</svg>
