<svg version="1.0" xmlns="http://www.w3.org/2000/svg"
 width="256.000000pt" height="256.000000pt" viewBox="0 0 256.000000 256.000000"
 preserveAspectRatio="xMidYMid meet">

<g transform="translate(0.000000,256.000000) scale(0.100000,-0.100000)"
fill="#FFFFFF" stroke="none">
<path d="M975 2449 c-168 -25 -322 -117 -379 -228 -11 -20 -31 -34 -73 -49
-186 -69 -314 -284 -314 -531 0 -100 9 -148 51 -262 l30 -82 -21 -28 c-40 -56
-60 -117 -60 -184 -1 -124 57 -227 169 -300 55 -35 62 -43 56 -65 -3 -14 -8
-60 -11 -103 -5 -70 -2 -83 21 -132 15 -30 41 -66 59 -81 42 -36 127 -74 182
-82 41 -6 47 -12 77 -62 63 -103 162 -153 313 -154 86 -1 124 12 178 62 l27
26 28 -26 c54 -51 90 -63 182 -62 146 3 245 52 305 151 l29 50 78 11 c43 6
100 21 126 32 133 59 204 214 157 345 -8 22 -15 43 -15 46 0 3 23 20 51 38 88
58 129 146 130 282 1 85 -15 133 -61 191 l-30 36 30 73 c45 109 61 182 61 278
-1 100 -19 181 -62 268 -57 118 -187 232 -306 270 -47 15 -56 22 -75 60 -44
88 -152 167 -271 199 -141 37 -274 24 -330 -32 l-27 -27 -26 27 c-50 49 -144
65 -279 45z m216 -128 c32 -39 39 -116 39 -401 l0 -280 -75 0 -75 0 0 125 0
125 -107 0 -108 1 -20 32 c-27 43 -104 81 -148 73 -54 -10 -97 -43 -118 -92
-28 -62 -19 -113 30 -164 65 -69 160 -65 224 10 31 37 38 40 85 40 l52 0 0
-125 0 -125 130 0 130 0 0 -205 0 -205 -180 0 -180 0 0 -158 0 -158 -31 -23
c-88 -65 -92 -174 -9 -244 42 -36 90 -43 146 -22 114 43 131 206 28 267 l-34
20 0 104 0 104 130 0 130 0 0 -350 c0 -372 -2 -393 -48 -434 -29 -26 -75 -33
-153 -25 -115 13 -182 63 -210 156 -12 42 -13 43 -54 43 -107 0 -208 61 -241
145 -21 56 -13 100 30 180 l33 60 -75 29 c-200 76 -263 263 -141 417 l31 39
89 0 c67 0 89 -3 89 -13 0 -15 45 -59 77 -76 61 -31 153 0 190 65 61 105 -11
224 -135 224 -54 0 -57 -2 -104 -50 l-49 -51 -97 3 -97 3 -24 65 c-32 89 -40
231 -17 320 43 171 161 306 283 326 39 6 44 11 69 61 49 101 187 177 347 192
91 8 146 -1 168 -28z m472 2 c66 -23 155 -110 177 -172 16 -42 18 -44 81 -60
191 -48 329 -236 329 -450 0 -82 -22 -172 -71 -286 l-39 -90 45 -45 c53 -54
65 -84 65 -158 0 -82 -16 -129 -61 -176 l-38 -41 -1 118 0 117 -230 0 -230 0
0 79 c0 79 0 79 33 99 65 38 87 139 44 203 -31 48 -104 82 -153 73 -50 -9
-113 -68 -123 -114 -14 -67 15 -138 70 -168 l29 -17 0 -132 0 -133 230 0 230
0 0 -107 c0 -91 4 -116 26 -172 41 -102 23 -174 -56 -228 -45 -31 -91 -43
-187 -50 l-81 -6 -13 -45 c-27 -96 -121 -151 -258 -153 -73 -1 -105 16 -133
72 -15 28 -18 61 -18 182 l0 147 108 0 107 0 20 -30 c22 -33 88 -70 125 -70
13 0 42 9 65 20 76 37 107 135 66 210 -20 38 -89 80 -130 80 -43 -1 -107 -36
-127 -69 l-18 -31 -108 0 -108 0 0 535 0 535 205 0 205 0 43 -44 c48 -51 96
-65 157 -47 47 14 97 69 106 117 14 77 -49 164 -131 180 -48 9 -120 -26 -146
-71 l-21 -35 -207 2 -206 3 -3 150 c-4 226 16 291 94 304 55 9 176 -4 237 -26z
m-903 -453 c24 -45 -25 -94 -69 -71 -23 13 -29 59 -9 79 20 20 66 15 78 -8z
m1173 -1 c18 -25 11 -56 -15 -70 -42 -23 -86 19 -68 65 12 33 62 36 83 5z
m-249 -471 c17 -50 -42 -89 -78 -52 -19 19 -21 55 -4 72 7 7 26 12 43 10 22
-2 32 -10 39 -30z m-930 -34 c22 -21 20 -47 -4 -69 -44 -40 -107 25 -69 71 15
19 54 18 73 -2z m194 -660 c28 -19 26 -61 -3 -80 -50 -33 -102 46 -53 80 12 9
25 16 28 16 3 0 16 -7 28 -16z m770 0 c30 -21 29 -59 -3 -80 -23 -15 -27 -15
-50 0 -32 21 -33 59 -3 80 12 9 25 16 28 16 3 0 16 -7 28 -16z"/>
</g>
</svg>
