<svg version="1.0" xmlns="http://www.w3.org/2000/svg"
 width="25px" height="25px" viewBox="0 0 256.000000 256.000000"
 preserveAspectRatio="xMidYMid meet">

<g transform="translate(0.000000,256.000000) scale(0.100000,-0.100000)"
fill="#FFFFFF" stroke="none">
<path d="M90 2388 c-24 -13 -53 -36 -64 -51 -21 -28 -21 -36 -24 -1108 l-2
-1079 1280 0 1280 0 -2 1079 c-3 1072 -3 1080 -24 1108 -11 15 -40 38 -64 51
l-44 22 -1146 0 -1146 0 -44 -22z m2360 -107 c5 -11 10 -56 10 -100 l0 -81
-1180 0 -1180 0 0 81 c0 44 5 89 10 100 10 19 34 19 1170 19 1136 0 1160 0
1170 -19z m10 -1151 l0 -870 -1180 0 -1180 0 0 870 0 870 1180 0 1180 0 0
-870z"/>
<path d="M1448 1773 c-28 -34 -479 -1154 -472 -1175 8 -27 46 -43 70 -30 13 7
96 197 252 580 128 313 235 578 238 589 12 43 -57 71 -88 36z"/>
<path d="M617 1377 c-108 -61 -200 -120 -203 -129 -12 -39 10 -58 204 -168
187 -107 198 -112 222 -98 15 8 26 24 28 40 4 31 -5 37 -175 134 -67 38 -120
72 -117 75 2 4 69 44 149 89 80 45 145 86 145 90 0 5 3 15 6 23 6 17 -28 57
-48 57 -7 0 -102 -51 -211 -113z"/>
<path d="M1712 1474 c-26 -18 -29 -55 -4 -76 9 -9 74 -48 145 -88 70 -40 129
-76 131 -79 3 -4 -50 -37 -117 -75 -170 -97 -179 -103 -175 -134 2 -16 13 -32
28 -40 24 -14 35 -9 222 98 195 111 216 128 204 168 -4 11 -88 65 -204 130
-109 62 -200 112 -203 112 -2 0 -15 -7 -27 -16z"/>
</g>
</svg>
