<svg version="1.0" xmlns="http://www.w3.org/2000/svg"
 width="35" height="35" viewBox="0 0 256.000000 256.000000"
 preserveAspectRatio="xMidYMid meet">

<g transform="translate(0.000000,256.000000) scale(0.100000,-0.100000)"
fill="#FFFFFF" stroke="none">
<path d="M1157 2044 c-4 -4 -7 -37 -7 -74 l0 -66 -74 -18 c-206 -48 -399 -205
-497 -401 -41 -83 -79 -214 -79 -272 0 -33 0 -33 -49 -33 -29 0 -53 -6 -60
-14 -8 -9 -11 -55 -9 -137 l3 -124 138 -3 138 -3 -3 138 -3 138 -67 3 -67 3 5
37 c44 322 252 564 554 643 l65 17 5 -52 5 -51 135 0 135 0 3 48 c2 32 7 47
17 47 34 0 179 -62 242 -103 102 -66 157 -120 217 -210 60 -92 99 -184 115
-271 19 -104 19 -105 -41 -108 l-53 -3 -3 -138 -3 -138 138 3 138 3 3 129 c2
97 -1 131 -10 138 -7 4 -39 8 -70 8 -52 0 -58 2 -62 23 -29 165 -39 199 -82
287 -40 81 -61 109 -143 190 -106 105 -197 161 -328 200 l-72 22 -3 71 -3 72
-131 3 c-71 1 -133 -1 -137 -4z m223 -134 l0 -90 -90 0 -90 0 0 90 0 90 90 0
90 0 0 -90z m-770 -870 l0 -90 -90 0 -90 0 0 83 c0 46 3 87 7 90 3 4 44 7 90
7 l83 0 0 -90z m1540 0 l0 -90 -90 0 -90 0 0 90 0 90 90 0 90 0 0 -90z"/>
<path d="M1130 1458 c-85 -110 -156 -204 -158 -208 -2 -4 24 -45 57 -91 85
-118 131 -214 131 -272 l0 -47 -47 0 c-80 -1 -113 -41 -113 -139 l0 -61 295 0
295 0 0 38 c-1 108 -33 154 -113 162 l-52 5 -3 41 c-4 51 63 188 142 289 l54
69 -47 61 c-27 33 -99 125 -161 205 -61 80 -115 146 -119 147 -3 1 -76 -88
-161 -199z m160 -78 c5 0 11 41 12 91 l3 91 115 -148 c144 -184 136 -171 112
-197 -38 -42 -121 -178 -141 -233 -12 -30 -21 -75 -21 -100 l0 -45 -77 3 -78
3 -6 60 c-6 69 -61 182 -133 279 -37 49 -43 62 -33 76 7 9 62 80 122 158 l110
142 3 -90 c1 -50 7 -90 12 -90z m224 -606 c9 -8 16 -31 16 -50 l0 -34 -240 0
c-207 0 -240 2 -240 15 0 13 29 15 205 15 130 0 205 4 205 10 0 6 -75 10 -205
10 -113 0 -205 3 -205 7 0 3 7 15 17 25 15 16 35 18 224 18 175 0 210 -2 223
-16z"/>
<path d="M1280 1330 c0 -11 5 -20 10 -20 6 0 10 9 10 20 0 11 -4 20 -10 20 -5
0 -10 -9 -10 -20z"/>
<path d="M1233 1256 c-22 -19 -28 -32 -28 -65 0 -50 26 -79 78 -88 31 -5 40
-1 67 25 40 41 41 83 1 123 -37 36 -79 38 -118 5z m101 -22 c9 -8 16 -28 16
-44 0 -36 -23 -60 -57 -60 -55 0 -83 62 -46 102 20 22 66 24 87 2z"/>
</g>
</svg>
