<svg version="1.0" xmlns="http://www.w3.org/2000/svg"
 width="256.000000pt" height="256.000000pt" viewBox="0 0 256.000000 256.000000"
 preserveAspectRatio="xMidYMid meet">

<g transform="translate(0.000000,256.000000) scale(0.100000,-0.100000)"
fill="#FFFFFF" stroke="none">
<path d="M1665 2333 c-50 -7 -344 -84 -439 -114 -48 -16 -100 -38 -116 -49
-41 -29 -64 -96 -105 -300 -20 -102 -38 -193 -41 -202 -5 -16 -24 -18 -177
-20 l-172 -3 -3 -318 -2 -318 33 -34 c32 -32 38 -35 96 -35 44 0 61 -4 61 -13
0 -7 -20 -114 -45 -237 -25 -123 -45 -238 -45 -255 0 -76 100 -149 245 -180
103 -21 325 -38 440 -33 112 6 163 22 212 70 60 58 80 133 158 598 66 394 176
1114 182 1195 l6 80 -38 49 c-21 28 -41 61 -45 75 -3 14 -17 32 -31 38 -23 12
-109 15 -174 6z m149 -55 c5 -6 -11 -148 -17 -154 -3 -4 -64 -15 -134 -25
-161 -23 -317 -53 -455 -85 -60 -14 -112 -24 -117 -22 -13 4 21 103 44 128 10
11 55 32 99 46 117 37 374 103 442 113 53 9 131 8 138 -1z m-24 -248 c0 -47
-46 -370 -90 -626 -40 -235 -159 -856 -164 -862 -4 -3 -739 48 -743 52 -3 3
48 262 62 318 l7 28 252 2 251 3 8 308 8 308 -26 44 -26 45 -154 0 c-124 0
-155 3 -155 14 0 15 49 258 53 261 15 13 419 96 602 124 109 16 115 15 115
-19z m-500 -705 l0 -275 -315 0 -315 0 0 275 0 275 315 0 315 0 0 -275z m-97
-816 c246 -17 327 -26 327 -36 0 -7 -9 -38 -21 -68 -36 -95 -95 -115 -282 -96
-162 17 -353 49 -390 65 -52 22 -70 49 -63 93 14 75 14 76 59 69 23 -3 189
-15 370 -27z"/>
<path d="M955 1468 c-2 -7 -9 -47 -16 -88 -6 -41 -20 -101 -29 -134 -20 -64
-17 -86 10 -86 13 0 23 14 34 48 23 68 46 187 46 233 0 33 -3 39 -20 39 -11 0
-22 -6 -25 -12z"/>
<path d="M756 1387 c-32 -29 -57 -58 -55 -64 9 -24 120 -115 134 -109 25 9 17
36 -23 77 l-38 38 39 39 c26 26 38 46 34 56 -10 26 -29 18 -91 -37z"/>
<path d="M1077 1433 c-14 -14 -6 -40 24 -76 l32 -38 -44 -45 c-40 -41 -42 -45
-26 -61 15 -16 20 -13 74 34 32 28 60 58 61 68 3 11 -17 38 -49 71 -54 55 -61
59 -72 47z"/>
<path d="M1056 451 c-20 -37 -20 -75 -2 -90 31 -26 71 27 64 85 -5 42 -42 45
-62 5z"/>
</g>
</svg>
