<svg version="1.0" xmlns="http://www.w3.org/2000/svg"
 width="256.000000pt" height="256.000000pt" viewBox="0 0 256.000000 256.000000"
 preserveAspectRatio="xMidYMid meet">

<g transform="translate(0.000000,256.000000) scale(0.100000,-0.100000)"
fill="#FFFFFF" stroke="none">
<path d="M1180 2454 c-14 -2 -59 -9 -100 -15 -168 -25 -358 -108 -512 -224
-439 -331 -589 -935 -354 -1431 214 -451 691 -726 1174 -675 283 30 522 141
717 336 306 305 421 729 310 1145 -112 418 -464 750 -890 841 -87 18 -293 32
-345 23z m221 -108 c215 -16 471 -139 638 -306 149 -149 252 -343 296 -555 21
-105 21 -305 0 -410 -90 -434 -416 -760 -850 -850 -105 -21 -305 -21 -410 0
-341 70 -617 285 -764 595 -59 124 -90 240 -100 367 -15 203 17 377 100 552
59 124 113 203 205 295 143 145 310 239 514 291 66 17 221 33 275 28 17 -1 60
-4 96 -7z"/>
<path d="M1117 2240 c-85 -15 -189 -51 -272 -92 -244 -122 -418 -332 -501
-604 -26 -83 -28 -102 -28 -264 0 -162 2 -181 28 -264 83 -272 257 -482 501
-604 156 -78 300 -108 483 -99 151 7 249 33 387 102 196 98 332 234 430 430
31 61 65 146 76 190 27 103 36 289 19 392 -61 380 -324 678 -696 789 -74 22
-113 27 -234 30 -80 1 -167 -1 -193 -6z m343 -110 c70 -14 124 -34 206 -75 62
-31 119 -64 128 -74 15 -16 15 -21 1 -54 -33 -79 -16 -159 61 -285 59 -97 83
-160 93 -241 12 -97 -3 -187 -58 -361 -28 -85 -64 -202 -81 -258 -17 -57 -33
-102 -35 -100 -7 7 -355 1051 -355 1065 0 8 12 13 34 13 81 0 125 25 110 64
-9 24 -27 26 -174 15 -93 -6 -187 -6 -282 0 -155 11 -171 8 -166 -38 3 -28 27
-38 95 -40 l41 -1 26 -67 c14 -38 50 -135 81 -218 l55 -150 -107 -323 c-59
-177 -110 -322 -113 -322 -4 0 -88 243 -187 539 l-181 539 30 6 c17 3 45 6 63
6 38 0 58 19 53 52 -3 22 -7 23 -89 23 l-86 0 14 22 c18 27 131 120 193 158
175 109 415 149 630 105z m500 -309 c28 -35 65 -90 81 -123 30 -58 30 -62 19
-131 -12 -80 -18 -92 -27 -57 -3 14 -37 84 -74 157 -66 127 -74 151 -71 201 3
33 14 26 72 -47z m-639 -100 c8 -7 399 -1168 399 -1182 0 -4 -13 -15 -28 -23
l-28 -14 -156 421 c-197 530 -298 807 -298 814 0 7 103 -7 111 -16z m-756 -8
c4 -10 95 -279 201 -598 145 -431 193 -586 189 -607 -7 -31 -13 -34 -38 -15
-10 7 -105 255 -223 577 l-205 565 22 48 c23 49 42 59 54 30z m1579 -431 c0
-171 -18 -250 -84 -385 -42 -86 -151 -232 -194 -260 -23 -16 -18 5 71 261 52
152 116 339 142 414 30 90 49 133 56 127 6 -6 10 -71 9 -157z m-1555 -258 c83
-229 150 -418 148 -420 -6 -6 -117 107 -158 161 -92 122 -155 294 -166 456 -6
90 3 219 16 219 4 0 76 -187 160 -416z m830 -205 c73 -198 131 -362 129 -365
-2 -2 -33 -11 -69 -21 -118 -31 -449 -16 -449 21 0 19 243 726 250 726 4 0 67
-162 139 -361z"/>
</g>
</svg>
