<svg version="1.0" xmlns="http://www.w3.org/2000/svg"
 width="256.000000pt" height="256.000000pt" viewBox="0 0 256.000000 256.000000"
 preserveAspectRatio="xMidYMid meet">

<g transform="translate(0.000000,256.000000) scale(0.100000,-0.100000)"
fill="#FFFFFF" stroke="none">
<path d="M321 2350 c-46 -11 -100 -67 -111 -116 -12 -51 -12 -1857 0 -1908 11
-51 65 -105 116 -116 51 -12 1857 -12 1908 0 51 11 105 65 116 116 12 51 12
1857 0 1908 -11 51 -65 105 -116 116 -48 12 -1865 11 -1913 0z m1917 -112 c8
-8 12 -45 12 -100 l0 -88 -970 0 -970 0 0 88 c0 55 4 92 12 100 17 17 1899 17
1916 0z m12 -1096 c0 -615 -3 -811 -12 -820 -17 -17 -1899 -17 -1916 0 -9 9
-12 205 -12 820 l0 808 970 0 970 0 0 -808z"/>
<path d="M372 2188 c-28 -28 -2 -88 38 -88 24 0 50 26 50 50 0 40 -60 66 -88
38z"/>
<path d="M527 2182 c-22 -24 -21 -45 1 -65 37 -34 82 -15 82 33 0 49 -51 68
-83 32z"/>
<path d="M682 2188 c-15 -15 -15 -61 0 -76 27 -27 88 0 88 40 0 36 -62 62 -88
36z"/>
<path d="M1489 1726 c-152 -54 -241 -219 -199 -366 9 -31 7 -37 -22 -67 -18
-18 -37 -33 -43 -33 -5 0 -65 55 -132 123 -110 110 -122 126 -125 161 -3 38
-6 42 -92 93 l-89 54 -33 -32 c-19 -18 -34 -36 -34 -40 0 -4 23 -46 51 -93 50
-83 53 -86 88 -86 33 0 47 -11 166 -130 l130 -130 -243 -243 -242 -243 0 -51
c0 -63 32 -107 89 -124 71 -21 84 -11 415 320 l309 309 36 -10 c48 -14 138 -5
193 19 108 49 178 155 178 274 0 63 -15 129 -28 129 -4 0 -50 -44 -104 -97
l-97 -97 -55 17 c-54 17 -56 19 -73 73 l-17 55 97 97 c53 54 97 100 97 104 0
26 -158 37 -221 14z"/>
<path d="M1463 948 l-73 -73 178 -177 c112 -112 187 -179 205 -184 35 -8 81
11 102 42 8 13 15 42 15 65 0 41 -4 46 -177 221 l-178 179 -72 -73z"/>
</g>
</svg>
