<?xml version="1.0" standalone="no"?>
<!DOCTYPE svg PUBLIC "-//W3C//DTD SVG 20010904//EN"
 "http://www.w3.org/TR/2001/REC-SVG-20010904/DTD/svg10.dtd">
<svg version="1.0" xmlns="http://www.w3.org/2000/svg"
 width="512.000000pt" height="512.000000pt" viewBox="0 0 512.000000 512.000000"
 preserveAspectRatio="xMidYMid meet">

<g transform="translate(0.000000,512.000000) scale(0.100000,-0.100000)"
fill="#04B3F3" stroke="none">
<path d="M1064 4792 c-58 -20 -117 -60 -260 -178 -215 -176 -401 -374 -464
-492 -44 -83 -39 -237 16 -457 135 -535 593 -1208 1320 -1940 754 -759 1442
-1232 1989 -1368 218 -55 358 -62 443 -22 104 48 249 175 416 365 217 246 276
342 284 457 6 92 -10 150 -56 203 -29 35 -529 375 -902 614 -126 81 -192 93
-311 56 -56 -17 -255 -122 -444 -233 l-59 -35 -56 38 c-259 177 -962 878
-1173 1169 l-47 64 19 31 c82 133 235 423 251 475 23 72 25 149 7 201 -13 34
-530 828 -615 942 -47 64 -91 100 -141 117 -50 16 -159 13 -217 -7z m169 -199
c9 -5 187 -271 435 -650 119 -181 172 -271 172 -290 0 -56 -22 -103 -169 -363
l-149 -265 36 -55 c126 -198 363 -470 699 -800 295 -291 540 -502 713 -612
l56 -36 209 120 c283 161 338 188 395 195 l48 6 294 -194 c540 -356 625 -416
631 -445 12 -67 -25 -128 -218 -352 -123 -143 -263 -273 -336 -312 -54 -28
-63 -30 -126 -24 -432 41 -1010 363 -1635 913 -501 440 -987 969 -1295 1411
-287 411 -467 827 -476 1098 -2 76 -1 80 37 138 67 102 360 379 515 487 61 41
123 53 164 30z"/>
</g>
</svg>
